HIERARCHY
ROOT joint_Root
{
	OFFSET 0.0 0.0 0.0
	CHANNELS 6 Xposition Yposition Zposition Zrotation Xrotation Yrotation 
	JOINT Hips
	{
		OFFSET -0.726466 93.3139 -2.00062
		CHANNELS 6 Xposition Yposition Zposition Zrotation Xrotation Yrotation 
		JOINT Spine
		{
			OFFSET 15.7357 0.0 0.0
			CHANNELS 6 Xposition Yposition Zposition Zrotation Xrotation Yrotation 
			JOINT Chest
			{
				OFFSET 8.98455 -0.406207 0.0
				CHANNELS 6 Xposition Yposition Zposition Zrotation Xrotation Yrotation 
				JOINT Neck
				{
					OFFSET 16.3773 0.0 0.0
					CHANNELS 6 Xposition Yposition Zposition Zrotation Xrotation Yrotation 
					JOINT Head
					{
						OFFSET 6.45672 0.0 0.0
						CHANNELS 6 Xposition Yposition Zposition Zrotation Xrotation Yrotation 
						End Site
						{
							OFFSET 0.0 0.0 0.0
						}
					}
				}
				JOINT Shoulder_L
				{
					OFFSET 12.9942 -0.242716 4.98039
					CHANNELS 6 Xposition Yposition Zposition Zrotation Xrotation Yrotation 
					JOINT UpperArm_L
					{
						OFFSET 5.34809 0.0 0.0
						CHANNELS 6 Xposition Yposition Zposition Zrotation Xrotation Yrotation 
						JOINT LowerArm_L
						{
							OFFSET 24.3286 1.87007e-05 0.0
							CHANNELS 6 Xposition Yposition Zposition Zrotation Xrotation Yrotation 
							JOINT Hand_L
							{
								OFFSET 22.2916 0.0 0.0
								CHANNELS 6 Xposition Yposition Zposition Zrotation Xrotation Yrotation 
								End Site
								{
									OFFSET 0.0 0.0 0.0
								}
							}
						}
					}
				}
				JOINT Shoulder_R
				{
					OFFSET 12.9945 -0.242716 -4.98039
					CHANNELS 6 Xposition Yposition Zposition Zrotation Xrotation Yrotation 
					JOINT UpperArm_R
					{
						OFFSET -5.34813 0.0 0.0
						CHANNELS 6 Xposition Yposition Zposition Zrotation Xrotation Yrotation 
						JOINT LowerArm_R
						{
							OFFSET -24.3289 0.000322201 0.0
							CHANNELS 6 Xposition Yposition Zposition Zrotation Xrotation Yrotation 
							JOINT Hand_R
							{
								OFFSET -22.2915 -0.000108084 0.0
								CHANNELS 6 Xposition Yposition Zposition Zrotation Xrotation Yrotation 
								End Site
								{
									OFFSET 0.0 0.0 0.0
								}
							}
						}
					}
				}
			}
		}
		JOINT UpperLeg_L
		{
			OFFSET -2.19248 -6.46944 0.0
			CHANNELS 6 Xposition Yposition Zposition Zrotation Xrotation Yrotation 
			JOINT LowerLeg_L
			{
				OFFSET 39.0811 0.0 -1.23785e-05
				CHANNELS 6 Xposition Yposition Zposition Zrotation Xrotation Yrotation 
				JOINT Foot_L
				{
					OFFSET 40.9854 0.0 -1.26872e-05
					CHANNELS 6 Xposition Yposition Zposition Zrotation Xrotation Yrotation 
					JOINT Toes_L
					{
						OFFSET 11.7543 0.0 0.0
						CHANNELS 6 Xposition Yposition Zposition Zrotation Xrotation Yrotation 
						End Site
						{
							OFFSET 0.0 0.0 0.0
						}
					}
				}
			}
		}
		JOINT UpperLeg_R
		{
			OFFSET -2.19251 6.46944 0.0
			CHANNELS 6 Xposition Yposition Zposition Zrotation Xrotation Yrotation 
			JOINT LowerLeg_R
			{
				OFFSET -39.0811 -0.00228153 -0.0401928
				CHANNELS 6 Xposition Yposition Zposition Zrotation Xrotation Yrotation 
				JOINT Foot_R
				{
					OFFSET -40.9854 0.0 0.0
					CHANNELS 6 Xposition Yposition Zposition Zrotation Xrotation Yrotation 
					JOINT Toes_R
					{
						OFFSET -11.7543 0.0 0.0
						CHANNELS 6 Xposition Yposition Zposition Zrotation Xrotation Yrotation 
						End Site
						{
							OFFSET 0.0 0.0 0.0
						}
					}
				}
			}
		}
	}
}
MOTION
Frames:	8
Frame Time:	0.0333333
0.000000 0.000000 0.000000 0.000000 0.000000 -0.000000 138.378000 86.916100 -139.414000 84.912800 10.820800 4.137810 15.735700 0.000005 -0.000001 70.251600 79.912700 -66.694300 8.984550 -0.406207 -0.000000 11.497000 -6.647160 7.788400 16.377300 -0.000001 -0.000001 6.185430 -4.946160 0.516152 6.456720 -0.000001 -0.000000 0.805056 -0.512220 -4.058140 12.994200 -0.242716 4.980390 -88.926900 -3.835260 -74.355900 5.348090 -0.000007 -0.000001 -52.238300 30.886800 -31.526500 24.328600 0.000019 0.000005 5.873220 4.393340 -53.331800 22.291600 -0.000001 0.000005 6.891860 5.567990 -9.583040 12.994500 -0.242716 -4.980390 88.625700 2.977660 -65.211300 -5.348130 -0.000001 -0.000004 -64.529100 25.916800 -0.861423 -24.328900 0.000322 -0.000009 7.242420 13.516400 -28.538900 -22.291500 -0.000108 -0.000004 2.660270 5.470650 -5.394720 -2.192480 -6.469440 -0.000000 -166.021000 0.667071 4.287430 39.081100 -0.000007 -0.000012 0.095917 -0.066080 55.434200 40.985400 -0.000006 -0.000013 7.831250 -3.200050 -43.240300 11.754300 -0.000000 0.000003 -0.005813 -0.069139 -19.390500 -2.192510 6.469440 -0.000001 -171.157000 18.189000 148.928000 -39.081100 -0.002282 -0.040193 0.111098 -0.115181 43.111700 -40.985400 0.000008 0.000006 8.718910 -7.042810 -58.127200 -11.754300 -0.000006 -0.000006 -0.009064 -0.096509 -20.504200
0.000000 0.000000 0.000000 0.000000 0.000000 -0.000000 137.866000 87.656900 -135.388000 85.247400 9.579240 4.207340 15.735700 0.000005 -0.000001 73.322300 80.211200 -70.007400 8.984550 -0.406207 -0.000000 11.193900 -5.476810 7.167990 16.377300 -0.000001 -0.000001 6.564050 -4.975030 0.841509 6.456720 -0.000001 -0.000000 1.368150 -1.392350 -3.762190 12.994200 -0.242716 4.980390 -88.898000 -3.806330 -73.840300 5.348090 -0.000007 -0.000001 -53.955700 32.997200 -29.245400 24.328600 0.000019 0.000005 7.645170 6.293520 -50.768300 22.291600 -0.000001 0.000005 5.659880 5.563340 -9.347970 12.994500 -0.242716 -4.980390 88.591300 3.092810 -65.496300 -5.348130 -0.000001 -0.000004 -63.700000 27.320400 -4.243940 -24.328900 0.000322 -0.000009 7.042800 12.457800 -29.805100 -22.291500 -0.000108 -0.000004 3.142250 5.477110 -5.638950 -2.192480 -6.469440 -0.000000 -166.873000 -1.422020 -0.527351 39.081100 -0.000007 -0.000012 0.070351 -0.035804 63.024100 40.985400 -0.000006 -0.000013 10.192700 -9.711460 -46.495800 11.754300 -0.000000 0.000003 -0.007644 -0.085111 -20.042200 -2.192510 6.469440 -0.000001 -171.394000 17.763300 152.318000 -39.081100 -0.002282 -0.040193 0.097904 -0.101413 43.019400 -40.985400 0.000008 0.000006 8.672960 -6.795680 -61.063700 -11.754300 -0.000006 -0.000006 -0.008161 -0.089342 -20.211300
0.000000 0.000000 0.000000 0.000000 0.000000 -0.000000 137.536000 88.555800 -131.732000 85.934000 7.953810 4.193520 15.735700 0.000005 -0.000001 76.809900 80.489500 -73.916800 8.984550 -0.406207 -0.000000 10.889200 -4.229970 6.188690 16.377300 -0.000001 -0.000001 6.980340 -4.869660 0.959398 6.456720 -0.000001 -0.000000 1.651060 -2.156580 -3.714750 12.994200 -0.242716 4.980390 -88.935300 -3.516750 -73.143300 5.348090 -0.000007 -0.000001 -55.462200 34.800600 -26.332700 24.328600 0.000019 0.000005 9.022880 8.009360 -48.735000 22.291600 -0.000001 0.000005 4.851670 5.560090 -9.191600 12.994500 -0.242716 -4.980390 88.584700 3.170930 -65.931800 -5.348130 -0.000001 -0.000004 -62.544300 28.634800 -8.426100 -24.328900 0.000322 -0.000009 6.585700 11.101800 -30.951300 -22.291500 -0.000108 -0.000004 3.304130 5.483160 -5.869840 -2.192480 -6.469440 -0.000000 -168.331000 -4.023330 -5.486930 39.081100 -0.000007 -0.000012 0.058901 -0.023860 67.943200 40.985400 -0.000006 -0.000013 11.360300 -10.246100 -49.114300 11.754300 -0.000000 0.000003 -0.007029 -0.079918 -19.830200 -2.192510 6.469440 -0.000001 -172.161000 17.279800 156.134000 -39.081100 -0.002282 -0.040193 0.084052 -0.091133 41.552700 -40.985400 0.000008 0.000006 8.580020 -5.972670 -62.896300 -11.754300 -0.000006 -0.000006 -0.007610 -0.084821 -20.026700
0.000000 0.000000 0.000000 0.000000 0.000000 -0.000000 137.360000 89.552500 -128.304000 86.779300 6.210530 3.910800 15.735700 0.000005 -0.000001 80.323400 80.826800 -77.924200 8.984550 -0.406207 -0.000000 10.397800 -3.008010 5.070010 16.377300 -0.000001 -0.000001 7.380860 -4.650130 0.953039 6.456720 -0.000001 -0.000000 1.841550 -2.802210 -3.896680 12.994200 -0.242716 4.980390 -88.967400 -3.255870 -72.391700 5.348090 -0.000007 -0.000001 -57.384300 36.066500 -22.464000 24.328600 0.000019 0.000005 8.465180 8.020480 -46.846200 22.291600 -0.000001 0.000005 4.650830 5.561390 -9.255200 12.994500 -0.242716 -4.980390 88.724300 2.950460 -66.606300 -5.348130 -0.000001 -0.000004 -61.326400 29.656000 -12.917600 -24.328900 0.000322 -0.000009 6.473980 10.362300 -32.250800 -22.291500 -0.000108 -0.000004 3.386720 5.486820 -6.011360 -2.192480 -6.469440 -0.000000 -170.450000 -6.393160 -10.506800 39.081100 -0.000007 -0.000012 0.062117 -0.022668 69.946700 40.985400 -0.000006 -0.000013 10.378000 -8.123050 -51.504400 11.754300 -0.000000 0.000003 -0.006415 -0.074571 -19.612100 -2.192510 6.469440 -0.000001 -173.247000 17.403900 160.002000 -39.081100 -0.002282 -0.040193 0.069305 -0.081248 39.098300 -40.985400 0.000008 0.000006 8.600360 -4.117100 -64.173900 -11.754300 -0.000006 -0.000006 -0.006641 -0.076554 -19.689300
0.000000 0.000000 0.000000 0.000000 0.000000 -0.000000 137.301000 90.464600 -125.066000 87.611500 4.322930 3.369220 15.735700 0.000005 -0.000001 84.282200 81.205700 -82.390900 8.984550 -0.406207 -0.000000 9.769490 -1.708700 3.926150 16.377300 -0.000001 -0.000001 7.667800 -4.271570 1.052010 6.456720 -0.000001 -0.000000 2.022570 -3.460000 -4.235740 12.994200 -0.242716 4.980390 -88.968000 -3.087790 -71.508000 5.348090 -0.000007 -0.000001 -59.803000 36.540900 -18.184300 24.328600 0.000019 0.000005 6.832310 6.917770 -44.845400 22.291600 -0.000001 0.000005 4.475410 5.558920 -9.134230 12.994500 -0.242716 -4.980390 88.922100 2.591520 -67.408300 -5.348130 -0.000001 -0.000004 -59.749600 30.352500 -17.446500 -24.328900 0.000322 -0.000009 6.443200 9.627740 -34.034000 -22.291500 -0.000108 -0.000004 3.673110 5.491430 -6.192370 -2.192480 -6.469440 -0.000000 -172.902000 -8.706340 -15.277400 39.081100 -0.000007 -0.000012 0.053183 -0.020550 68.868000 40.985400 -0.000006 -0.000013 9.564730 -5.832570 -54.282600 11.754300 -0.000000 0.000003 -0.006045 -0.071253 -19.476700 -2.192510 6.469440 -0.000001 -174.457000 18.475700 163.594000 -39.081100 -0.002282 -0.040193 0.054994 -0.070692 36.183000 -40.985400 0.000008 0.000006 8.753000 -1.281160 -65.116200 -11.754300 -0.000006 -0.000006 -0.005955 -0.070423 -19.439200
0.000000 0.000000 0.000000 0.000000 0.000000 -0.000000 137.285000 91.228800 -121.928000 88.287800 2.278920 3.042070 15.735700 0.000005 -0.000001 88.778700 81.397700 -87.363400 8.984550 -0.406207 -0.000000 9.440720 -0.343926 2.856760 16.377300 -0.000001 -0.000001 7.771570 -3.734210 1.160960 6.456720 -0.000001 -0.000000 2.182790 -4.042090 -4.514580 12.994200 -0.242716 4.980390 -88.963300 -2.919650 -70.440200 5.348090 -0.000007 -0.000001 -62.087700 36.208700 -14.107900 24.328600 0.000019 0.000005 5.562710 5.997910 -42.984900 22.291600 -0.000001 0.000005 3.900370 5.558950 -9.135290 12.994500 -0.242716 -4.980390 89.092700 2.290710 -68.387100 -5.348130 -0.000001 -0.000004 -57.405900 30.784700 -22.203800 -24.328900 0.000322 -0.000009 6.358710 8.733990 -36.280500 -22.291500 -0.000108 -0.000004 3.873630 5.491900 -6.210840 -2.192480 -6.469440 -0.000000 -175.249000 -11.089400 -19.145500 39.081100 -0.000007 -0.000012 0.036272 -0.017080 64.778100 40.985400 -0.000006 -0.000013 9.202040 -5.605410 -56.451100 11.754300 -0.000000 0.000003 -0.005782 -0.068847 -19.378600 -2.192510 6.469440 -0.000001 -175.814000 19.382300 167.294000 -39.081100 -0.002282 -0.040193 0.041742 -0.058704 33.222300 -40.985400 0.000008 0.000006 8.670160 1.629480 -65.807000 -11.754300 -0.000006 -0.000006 -0.005230 -0.063674 -19.164000
0.000000 0.000000 0.000000 0.000000 0.000000 -0.000000 137.281000 91.768400 -118.940000 88.670100 0.223419 2.680040 15.735700 0.000005 -0.000001 93.369000 81.509200 -92.308200 8.984550 -0.406207 -0.000000 9.178760 1.005590 2.039150 16.377300 -0.000001 -0.000001 7.696210 -3.152400 1.196130 6.456720 -0.000001 -0.000000 2.354930 -4.389360 -4.824210 12.994200 -0.242716 4.980390 -88.999600 -2.659830 -69.378200 5.348090 -0.000007 -0.000001 -63.980000 35.451400 -10.119900 24.328600 0.000019 0.000005 5.225340 5.866510 -41.820600 22.291600 -0.000001 0.000005 3.422340 5.554340 -8.911170 12.994500 -0.242716 -4.980390 89.231000 2.037320 -69.315400 -5.348130 -0.000001 -0.000004 -54.099200 31.004700 -27.205600 -24.328900 0.000322 -0.000009 6.543750 8.153750 -38.971000 -22.291500 -0.000108 -0.000004 3.859120 5.494260 -6.303690 -2.192480 -6.469440 -0.000000 -177.248000 -13.499800 -22.245600 39.081100 -0.000007 -0.000012 0.015541 -0.009758 57.864600 40.985400 -0.000006 -0.000013 9.192480 -7.493700 -57.726800 11.754300 -0.000000 0.000003 -0.004553 -0.057080 -18.899000 -2.192510 6.469440 -0.000001 -176.910000 19.277600 170.691000 -39.081100 -0.002282 -0.040193 0.029823 -0.045218 30.393500 -40.985400 0.000008 0.000006 8.462950 3.647090 -66.342200 -11.754300 -0.000006 -0.000006 -0.004730 -0.058827 -18.966500
0.000000 0.000000 0.000000 0.000000 0.000000 -0.000000 137.273000 92.012300 -116.033000 88.829100 -1.546630 2.219780 15.735700 0.000005 -0.000001 96.563500 81.570900 -95.763300 8.984550 -0.406207 -0.000000 8.972370 1.925330 1.448200 16.377300 -0.000001 -0.000001 7.561030 -2.464130 1.004850 6.456720 -0.000001 -0.000000 2.334700 -4.526340 -4.861260 12.994200 -0.242716 4.980390 -89.066400 -2.338420 -68.228500 5.348090 -0.000007 -0.000001 -65.640200 34.160500 -6.135230 24.328600 0.000019 0.000005 5.222380 6.026340 -41.042200 22.291600 -0.000001 0.000005 3.308350 5.554110 -8.901680 12.994500 -0.242716 -4.980390 89.338000 1.842220 -70.230600 -5.348130 -0.000001 -0.000004 -49.916500 30.973400 -32.767000 -24.328900 0.000322 -0.000009 6.485000 7.427330 -41.333200 -22.291500 -0.000108 -0.000004 4.006940 5.499030 -6.494110 -2.192480 -6.469440 -0.000000 -178.923000 -15.414900 -24.474200 39.081100 -0.000007 -0.000012 -0.008513 0.007584 48.314300 40.985400 -0.000006 -0.000013 9.604030 -9.625130 -57.089200 11.754300 -0.000000 0.000003 -0.006220 -0.072830 -19.541100 -2.192510 6.469440 -0.000001 -177.696000 18.556700 173.569000 -39.081100 -0.002282 -0.040193 0.019768 -0.030837 28.094300 -40.985400 0.000008 0.000006 7.956070 4.655700 -67.020300 -11.754300 -0.000006 -0.000006 -0.004559 -0.057133 -18.897500
